<svg preserveAspectRatio="none" width="100%" height="100%" overflow="visible" style="display: block;" viewBox="0 0 14.1 14.1" fill="none" xmlns="http://www.w3.org/2000/svg">
<g id="meal">
<path id="&#229;&#189;&#162;&#231;&#138;&#182;" fill-rule="evenodd" clip-rule="evenodd" d="M2.85564 1.63477H2.61723C2.40805 1.63477 2.23828 1.79178 2.23828 1.98591V5.90131C2.23828 6.59278 2.96855 6.93236 3.36408 7.0658C3.51411 7.11645 3.61078 7.2495 3.6092 7.39727L3.56182 12.1093C3.5599 12.3042 3.73001 12.4636 3.94083 12.4636H4.95693C5.16612 12.4636 5.33583 12.3065 5.33583 12.1124V7.36433C5.33583 7.22355 5.42511 7.0975 5.56481 7.04217C5.96514 6.88324 6.75028 6.49611 6.75028 5.90131C6.75028 5.17888 6.7064 2.85763 6.68948 1.97745C6.68593 1.78597 6.51735 1.63477 6.31053 1.63477H6.07844C5.8692 1.63477 5.69944 1.79178 5.69944 1.98591V4.57715C5.69944 4.77134 5.52973 4.92836 5.32049 4.92836H5.31101C5.10137 4.92836 4.93206 4.77134 4.93206 4.57715V1.98591C4.93206 1.79178 4.76229 1.63477 4.55271 1.63477H4.40861C4.19897 1.63477 4.02966 1.79178 4.02966 1.98591V4.57715C4.02966 4.77134 3.85989 4.92836 3.65026 4.92836H3.61393C3.40435 4.92836 3.23504 4.77134 3.23504 4.57715V1.98591C3.23504 1.79178 3.06527 1.63477 2.85564 1.63477ZM11.8628 4.83647C11.8401 2.57579 10.3776 2.05792 9.0347 1.93739C8.77718 1.91416 8.55716 2.11319 8.55908 2.35921C8.56511 3.1844 8.57459 4.91695 8.5553 5.59916C8.53595 6.28065 8.97977 6.79665 9.20435 7.01283C9.28619 7.09179 9.33046 7.1963 9.33046 7.30724V12.0422C9.33046 12.2752 9.52854 12.4636 9.7732 12.4636H10.6192C10.8638 12.4636 11.0619 12.2751 11.0619 12.0422V7.45523C11.0619 7.30763 11.1365 7.16003 11.2755 7.09444C11.5186 6.97967 11.8803 6.52587 11.8628 4.83647Z" fill="var(--fill-0, #2D9917)"/>
</g>
</svg>
