<svg preserveAspectRatio="none" width="100%" height="100%" overflow="visible" style="display: block;" viewBox="0 0 14.1 14.1" fill="none" xmlns="http://www.w3.org/2000/svg">
<g id="icon/ic_&#230;&#156;&#186;&#228;&#184;&#138;WiFi_&#233;&#157;&#162;&#229;&#158;&#139;_&#228;&#184;&#141;&#229;&#143;&#175;&#233;&#128;&#137;">
<path id="&#229;&#189;&#162;&#231;&#138;&#182;" fill-rule="evenodd" clip-rule="evenodd" d="M7.04742 3.98085C8.71674 3.98114 10.2579 4.53192 11.5143 5.46137C11.8306 5.69532 12.2796 5.67077 12.539 5.37506C12.795 5.08329 12.7698 4.63767 12.4641 4.39851C10.954 3.21716 9.08147 2.42522 7.04731 2.42487C5.02267 2.42451 3.15751 3.20892 1.65128 4.38069C1.34034 4.62259 1.31999 5.07691 1.58714 5.36644C1.84798 5.64912 2.28532 5.66765 2.59453 5.43888C3.84823 4.51133 5.37382 3.98056 7.04742 3.98085ZM6.96724 8.56291C6.19519 8.56277 5.48794 8.88804 4.93836 9.35725L6.9667 11.6749L8.99813 9.36026C8.44834 8.88972 7.74082 8.56304 6.96724 8.56291ZM9.43749 7.74748C8.73335 7.30655 7.90616 7.05099 7.02001 7.05084C6.13306 7.05068 5.25691 7.29879 4.53018 7.73714C4.17527 7.95122 3.70301 7.92517 3.43012 7.6132C3.15806 7.30219 3.18646 6.82569 3.52745 6.59229C4.52303 5.91083 5.75367 5.49463 7.02066 5.49485C8.2885 5.49507 9.46391 5.92053 10.4402 6.6059C10.7786 6.84344 10.806 7.3203 10.5332 7.63099C10.2599 7.94233 9.78863 7.96736 9.43749 7.74748Z" fill="var(--fill-0, #E2E3E6)"/>
</g>
</svg>
